<svg id="Layer_1" data-name="Layer 1" xmlns="http://www.w3.org/2000/svg" viewBox="0 0 390 93"><defs><style>.cls-1{fill:#fff;}</style></defs><title>fullwhite</title><path class="cls-1" d="M31.58,50.7V40.19l.23,0-.23-.06a23.33,23.33,0,0,1-3.41-1.31,22.13,22.13,0,0,1-12.53-20H3.25A34.44,34.44,0,0,0,15.72,45.39c.45.38.92.75,1.4,1.11A34.3,34.3,0,0,0,28.17,52Z"/><path class="cls-1" d="M31.58,52.81l.23,0-.23.06A22.14,22.14,0,0,0,15.64,74.17H3.25a34.56,34.56,0,0,1,28.33-34Z"/><rect class="cls-1" x="31.58" y="61.77" width="28.55" height="12.39"/><path class="cls-1" d="M72.31,74.17H59.91a22.11,22.11,0,0,0-12.53-20L44,52.91l-.24-.06.24,0V42.3A21.51,21.51,0,0,0,47.38,41,34.36,34.36,0,0,1,58.44,46.5c.48.36.94.73,1.4,1.11A34.44,34.44,0,0,1,72.31,74.17Z"/><rect class="cls-1" x="31.58" y="18.83" width="28.55" height="12.39"/><path class="cls-1" d="M44,52.91v-.1l-.24,0Zm-.24-12.76.24,0v-.1Zm-12.16,0,.23,0-.23-.06Zm0,12.72.23-.06-.23,0Z"/><path class="cls-1" d="M72.31,18.83A34.56,34.56,0,0,1,44,52.81V40.19l-.24,0,.24-.06A22.15,22.15,0,0,0,59.91,18.83Z"/><path class="cls-1" d="M119.12,52.13l-5.05,5.44V71h-9.71V23.91h9.71V45.27l4.27-5.86,12-15.5h11.94L125.56,44.85,142.78,71H131.22Z"/><path class="cls-1" d="M161.1,71.68q-7.71,0-12.54-4.72t-4.84-12.59v-.91a21.18,21.18,0,0,1,2-9.44,15,15,0,0,1,5.78-6.41,16.2,16.2,0,0,1,8.53-2.25q7.19,0,11.31,4.54t4.13,12.85v3.82H153.2a8.7,8.7,0,0,0,2.74,5.5,8.28,8.28,0,0,0,5.78,2.07,10.05,10.05,0,0,0,8.44-3.92l4.6,5.15a14,14,0,0,1-5.7,4.65A18.69,18.69,0,0,1,161.1,71.68ZM160,42.91a5.86,5.86,0,0,0-4.51,1.88,9.72,9.72,0,0,0-2.22,5.4h13v-.75a7,7,0,0,0-1.68-4.83A6.06,6.06,0,0,0,160,42.91Z"/><path class="cls-1" d="M190.69,71H181.3V21.32h9.39Z"/><path class="cls-1" d="M218.69,71a10.13,10.13,0,0,1-.94-3.14,11.33,11.33,0,0,1-8.84,3.78,12.47,12.47,0,0,1-8.53-3A9.6,9.6,0,0,1,197,61.2a9.88,9.88,0,0,1,4.13-8.55q4.13-3,11.92-3h4.31v-2a5.76,5.76,0,0,0-1.25-3.88,4.9,4.9,0,0,0-3.93-1.46,5.61,5.61,0,0,0-3.71,1.13,3.88,3.88,0,0,0-1.34,3.11h-9.35a9.4,9.4,0,0,1,1.87-5.63A12.34,12.34,0,0,1,205,36.84a19.41,19.41,0,0,1,7.71-1.48q6.47,0,10.27,3.26t3.81,9.14V62.94c0,3.33.48,5.84,1.39,7.55V71ZM211,64.53a8.13,8.13,0,0,0,3.82-.92,6,6,0,0,0,2.59-2.48v-6h-3.5q-7,0-7.47,4.86l0,.55a3.76,3.76,0,0,0,1.23,2.88A4.82,4.82,0,0,0,211,64.53Z"/><path class="cls-1" d="M252.9,61.36a3,3,0,0,0-1.7-2.71,19.63,19.63,0,0,0-5.45-1.76q-12.5-2.62-12.5-10.62a9.62,9.62,0,0,1,3.87-7.78q3.87-3.12,10.12-3.13,6.66,0,10.66,3.14a9.9,9.9,0,0,1,4,8.16h-9.35a4.55,4.55,0,0,0-1.3-3.32A5.49,5.49,0,0,0,247.2,42a5.59,5.59,0,0,0-3.65,1.07,3.36,3.36,0,0,0-1.3,2.72,2.88,2.88,0,0,0,1.47,2.51,15.07,15.07,0,0,0,5,1.65,40.18,40.18,0,0,1,5.89,1.57Q262,54.27,262,61a9.13,9.13,0,0,1-4.11,7.75q-4.11,3-10.62,3a18.48,18.48,0,0,1-7.82-1.57,13.17,13.17,0,0,1-5.36-4.3,10,10,0,0,1-1.94-5.91H241a4.88,4.88,0,0,0,1.85,3.82,7.26,7.26,0,0,0,4.59,1.33,6.81,6.81,0,0,0,4.07-1A3.19,3.19,0,0,0,252.9,61.36Z"/><path class="cls-1" d="M299.58,53.85q0,8.41-3.59,13.12a11.92,11.92,0,0,1-10,4.71,10.93,10.93,0,0,1-9.1-4.37L276.43,71H268V21.32h9.35V39.15a10.68,10.68,0,0,1,8.52-3.79,12,12,0,0,1,10.05,4.71q3.63,4.71,3.64,13.26Zm-9.36-.68q0-5.31-1.68-7.75a5.69,5.69,0,0,0-5-2.45c-3,0-5,1.22-6.15,3.66V60.45q1.72,3.69,6.22,3.69t6-4.47A22.74,22.74,0,0,0,290.22,53.17Z"/><path class="cls-1" d="M305.28,27a4.58,4.58,0,0,1,1.4-3.46,6.07,6.07,0,0,1,7.66,0A4.56,4.56,0,0,1,315.76,27a4.58,4.58,0,0,1-1.44,3.49,6,6,0,0,1-7.6,0A4.58,4.58,0,0,1,305.28,27ZM315.21,71h-9.38V36h9.38Z"/><path class="cls-1" d="M341.89,61.36a3,3,0,0,0-1.7-2.71,19.84,19.84,0,0,0-5.46-1.76q-12.5-2.62-12.49-10.62a9.62,9.62,0,0,1,3.87-7.78c2.57-2.08,5.95-3.13,10.11-3.13q6.67,0,10.67,3.14a9.92,9.92,0,0,1,4,8.16h-9.35a4.51,4.51,0,0,0-1.3-3.32,5.48,5.48,0,0,0-4-1.31,5.6,5.6,0,0,0-3.66,1.07,3.38,3.38,0,0,0-1.29,2.72,2.88,2.88,0,0,0,1.47,2.51,15,15,0,0,0,5,1.65,40.52,40.52,0,0,1,5.89,1.57Q351,54.27,351,61a9.13,9.13,0,0,1-4.11,7.75q-4.11,3-10.62,3a18.43,18.43,0,0,1-7.81-1.57,13,13,0,0,1-5.36-4.3,10,10,0,0,1-1.94-5.91H330a4.87,4.87,0,0,0,1.84,3.82,7.29,7.29,0,0,0,4.6,1.33,6.77,6.77,0,0,0,4.06-1A3.17,3.17,0,0,0,341.89,61.36Z"/><path class="cls-1" d="M377.3,71a10.4,10.4,0,0,1-.94-3.14,11.33,11.33,0,0,1-8.84,3.78,12.47,12.47,0,0,1-8.53-3,9.6,9.6,0,0,1-3.38-7.51,9.91,9.91,0,0,1,4.13-8.55q4.13-3,11.93-3H376v-2a5.76,5.76,0,0,0-1.25-3.88,4.9,4.9,0,0,0-3.93-1.46,5.58,5.58,0,0,0-3.7,1.13,3.86,3.86,0,0,0-1.35,3.11h-9.35a9.4,9.4,0,0,1,1.87-5.63,12.46,12.46,0,0,1,5.31-4.06,19.41,19.41,0,0,1,7.71-1.48q6.47,0,10.27,3.26t3.81,9.14V62.94c0,3.33.48,5.84,1.39,7.55V71Zm-7.74-6.51a8.1,8.1,0,0,0,3.82-.92A6,6,0,0,0,376,61.13v-6h-3.5q-7,0-7.47,4.86l0,.55a3.72,3.72,0,0,0,1.23,2.88A4.79,4.79,0,0,0,369.56,64.53Z"/></svg>