<svg id="Layer_1" data-name="Layer 1" xmlns="http://www.w3.org/2000/svg" viewBox="0 0 390 93"><defs><style>.cls-1{fill:#050517;}.cls-2{fill:#3883ce;}</style></defs><title>fullcolor</title><path class="cls-1" d="M90.12,52.44l-5.44,5.85V72.8H74.21V22H84.68V45l4.6-6.31L102.22,22h12.87l-18,22.56L115.61,72.8H103.16Z"/><path class="cls-1" d="M135.35,73.5q-8.31,0-13.52-5.09t-5.21-13.57v-1a22.75,22.75,0,0,1,2.2-10.17A16.14,16.14,0,0,1,125,36.79a17.54,17.54,0,0,1,9.19-2.42q7.74,0,12.19,4.88t4.45,13.85v4.11h-24a9.37,9.37,0,0,0,2.94,5.93A8.91,8.91,0,0,0,136,65.37a10.85,10.85,0,0,0,9.1-4.22l4.95,5.55a15,15,0,0,1-6.13,5A20.13,20.13,0,0,1,135.35,73.5Zm-1.15-31a6.28,6.28,0,0,0-4.87,2,10.53,10.53,0,0,0-2.39,5.81h14v-.8a7.52,7.52,0,0,0-1.81-5.2A6.49,6.49,0,0,0,134.2,42.5Z"/><path class="cls-1" d="M167.22,72.8H157.11V19.24h10.11Z"/><path class="cls-1" d="M197.39,72.8a11.06,11.06,0,0,1-1-3.38,12.19,12.19,0,0,1-9.52,4.08,13.36,13.36,0,0,1-9.18-3.21A10.33,10.33,0,0,1,174,62.2,10.66,10.66,0,0,1,178.47,53q4.44-3.21,12.85-3.24H196V47.59a6.21,6.21,0,0,0-1.35-4.19,5.28,5.28,0,0,0-4.23-1.57,6,6,0,0,0-4,1.22,4.17,4.17,0,0,0-1.44,3.35H174.86a10.13,10.13,0,0,1,2-6.07A13.41,13.41,0,0,1,182.6,36a20.79,20.79,0,0,1,8.3-1.59q7,0,11.07,3.51t4.1,9.85V64.08q0,5.37,1.5,8.13v.59Zm-8.34-7a8.73,8.73,0,0,0,4.12-1A6.56,6.56,0,0,0,196,62.13V55.64h-3.77q-7.58,0-8.06,5.23l0,.6a4,4,0,0,0,1.32,3.1A5.15,5.15,0,0,0,189.05,65.79Z"/><path class="cls-1" d="M234.25,62.37a3.25,3.25,0,0,0-1.83-2.91,20.83,20.83,0,0,0-5.88-1.9q-13.46-2.82-13.46-11.44a10.36,10.36,0,0,1,4.17-8.38c2.77-2.25,6.41-3.37,10.89-3.37q7.19,0,11.49,3.38a10.65,10.65,0,0,1,4.31,8.79H233.86A4.86,4.86,0,0,0,232.47,43a5.92,5.92,0,0,0-4.36-1.41,6,6,0,0,0-3.94,1.15,3.62,3.62,0,0,0-1.4,2.93,3.11,3.11,0,0,0,1.59,2.7,16.47,16.47,0,0,0,5.35,1.78,43.53,43.53,0,0,1,6.35,1.69q8,2.92,8,10.15a9.85,9.85,0,0,1-4.43,8.35q-4.44,3.19-11.44,3.19a20.06,20.06,0,0,1-8.42-1.69A14.11,14.11,0,0,1,214,67.17a10.75,10.75,0,0,1-2.1-6.37h9.56a5.22,5.22,0,0,0,2,4.12,7.89,7.89,0,0,0,4.95,1.43,7.27,7.27,0,0,0,4.37-1.1A3.42,3.42,0,0,0,234.25,62.37Z"/><path class="cls-2" d="M284.53,54.28q0,9.07-3.87,14.14a12.8,12.8,0,0,1-10.81,5.08,11.78,11.78,0,0,1-9.8-4.71l-.45,4h-9.07V19.24h10.08V38.45a11.48,11.48,0,0,1,9.17-4.08,12.91,12.91,0,0,1,10.83,5.08q3.93,5.07,3.92,14.28Zm-10.07-.73c0-3.81-.61-6.6-1.82-8.35a6.12,6.12,0,0,0-5.4-2.63q-4.82,0-6.63,3.94V61.4q1.84,4,6.7,4t6.41-4.81A24.68,24.68,0,0,0,274.46,53.55Z"/><path class="cls-2" d="M290.67,25.3a5,5,0,0,1,1.52-3.73,6.56,6.56,0,0,1,8.25,0A5,5,0,0,1,302,25.3a5,5,0,0,1-1.55,3.77,6.49,6.49,0,0,1-8.2,0A5,5,0,0,1,290.67,25.3Zm10.71,47.5H291.26V35.07h10.12Z"/><path class="cls-2" d="M330.11,62.37a3.25,3.25,0,0,0-1.83-2.91,20.85,20.85,0,0,0-5.87-1.9q-13.47-2.82-13.47-11.44a10.36,10.36,0,0,1,4.17-8.38q4.17-3.37,10.9-3.37,7.19,0,11.49,3.38a10.68,10.68,0,0,1,4.31,8.79H329.73a4.87,4.87,0,0,0-1.4-3.57A5.91,5.91,0,0,0,324,41.56,6,6,0,0,0,320,42.71a3.61,3.61,0,0,0-1.39,2.93,3.11,3.11,0,0,0,1.59,2.7,16.38,16.38,0,0,0,5.35,1.78,43.88,43.88,0,0,1,6.35,1.69q8,2.92,8,10.15a9.85,9.85,0,0,1-4.43,8.35Q331.05,73.51,324,73.5a20.09,20.09,0,0,1-8.42-1.69,14.24,14.24,0,0,1-5.77-4.64,10.81,10.81,0,0,1-2.09-6.37h9.55a5.28,5.28,0,0,0,2,4.12,7.89,7.89,0,0,0,4.95,1.43,7.33,7.33,0,0,0,4.38-1.1A3.41,3.41,0,0,0,330.11,62.37Z"/><path class="cls-2" d="M368.26,72.8a11.36,11.36,0,0,1-1-3.38,12.19,12.19,0,0,1-9.52,4.08,13.41,13.41,0,0,1-9.19-3.21,10.32,10.32,0,0,1-3.64-8.09A10.67,10.67,0,0,1,349.34,53q4.46-3.21,12.86-3.24h4.63V47.59a6.2,6.2,0,0,0-1.34-4.19,5.3,5.3,0,0,0-4.24-1.57,6,6,0,0,0-4,1.22,4.17,4.17,0,0,0-1.45,3.35H345.74a10.13,10.13,0,0,1,2-6.07A13.35,13.35,0,0,1,353.48,36a20.79,20.79,0,0,1,8.3-1.59q7,0,11.07,3.51t4.1,9.85V64.08q0,5.37,1.5,8.13v.59Zm-8.33-7a8.67,8.67,0,0,0,4.11-1,6.45,6.45,0,0,0,2.79-2.67V55.64h-3.76q-7.57,0-8.06,5.23l0,.6a4,4,0,0,0,1.32,3.1A5.13,5.13,0,0,0,359.93,65.79Z"/><path class="cls-1" d="M25.49,18.64H35.93a0,0,0,0,1,0,0V74.36a0,0,0,0,1,0,0h0A10.45,10.45,0,0,1,25.49,63.91V18.64A0,0,0,0,1,25.49,18.64Z"/><path class="cls-1" d="M39.42,50H49.87a0,0,0,0,1,0,0V63.91A10.45,10.45,0,0,1,39.42,74.36h0a0,0,0,0,1,0,0V50A0,0,0,0,1,39.42,50Z"/><path class="cls-2" d="M39.42,18.64h0A10.45,10.45,0,0,1,49.87,29.09V43a0,0,0,0,1,0,0H39.42a0,0,0,0,1,0,0V18.64A0,0,0,0,1,39.42,18.64Z"/><path class="cls-1" d="M11.55,50H22a0,0,0,0,1,0,0V63.91A10.45,10.45,0,0,1,11.55,74.36h0a0,0,0,0,1,0,0V50A0,0,0,0,1,11.55,50Z" transform="translate(33.56 124.35) rotate(-180)"/><path class="cls-2" d="M11.55,18.64h0A10.45,10.45,0,0,1,22,29.09V43a0,0,0,0,1,0,0H11.55a0,0,0,0,1,0,0V18.64A0,0,0,0,1,11.55,18.64Z" transform="translate(33.56 61.65) rotate(-180)"/></svg>