<svg id="Layer_1" data-name="Layer 1" xmlns="http://www.w3.org/2000/svg" viewBox="0 0 127 186"><defs><style>.cls-1{fill:#050517;}.cls-2{fill:#cf5c36;}</style></defs><title>logocolor</title><path class="cls-1" d="M47.75,9h31.5a0,0,0,0,1,0,0V177a0,0,0,0,1,0,0h0a31.5,31.5,0,0,1-31.5-31.5V9a0,0,0,0,1,0,0Z"/><path class="cls-1" d="M89.75,103.5h31.5a0,0,0,0,1,0,0v42A31.5,31.5,0,0,1,89.75,177h0a0,0,0,0,1,0,0V103.5A0,0,0,0,1,89.75,103.5Z"/><path class="cls-2" d="M89.75,9h0a31.5,31.5,0,0,1,31.5,31.5v42a0,0,0,0,1,0,0H89.75a0,0,0,0,1,0,0V9A0,0,0,0,1,89.75,9Z"/><path class="cls-1" d="M5.75,103.5h31.5a0,0,0,0,1,0,0v42A31.5,31.5,0,0,1,5.75,177h0a0,0,0,0,1,0,0V103.5A0,0,0,0,1,5.75,103.5Z" transform="translate(43 280.5) rotate(-180)"/><path class="cls-2" d="M5.75,9h0a31.5,31.5,0,0,1,31.5,31.5v42a0,0,0,0,1,0,0H5.75a0,0,0,0,1,0,0V9A0,0,0,0,1,5.75,9Z" transform="translate(43 91.5) rotate(180)"/></svg>