<svg id="Layer_1" data-name="Layer 1" xmlns="http://www.w3.org/2000/svg" viewBox="0 0 127 186"><defs><style>.cls-1{fill:#fff;}</style></defs><title>logowhite</title><path class="cls-1" d="M53.18,100V82.5l.39-.07-.39-.11a35.54,35.54,0,0,1-5.67-2.18A36.85,36.85,0,0,1,26.64,46.93H6A57.4,57.4,0,0,0,26.76,91.16c.76.63,1.54,1.25,2.33,1.84a57.23,57.23,0,0,0,18.42,9.17Z"/><path class="cls-1" d="M53.18,103.5l.39.07-.39.11a36.88,36.88,0,0,0-26.54,35.39H6A57.5,57.5,0,0,1,53.18,82.5Z"/><rect class="cls-1" x="53.18" y="118.43" width="47.55" height="20.64"/><path class="cls-1" d="M121,139.07H100.36a36.85,36.85,0,0,0-20.87-33.21l-5.67-2.18-.39-.11.39-.07V86a36.48,36.48,0,0,0,5.67-2.17A57.23,57.23,0,0,1,97.91,93c.79.59,1.57,1.21,2.33,1.84A57.4,57.4,0,0,1,121,139.07Z"/><rect class="cls-1" x="53.18" y="46.93" width="47.55" height="20.64"/><path class="cls-1" d="M73.82,103.68v-.18l-.39.07Zm-.39-21.25.39.07v-.18Zm-20.25.07.39-.07-.39-.11Zm0,21.18.39-.11-.39-.07Z"/><path class="cls-1" d="M121,46.93A57.5,57.5,0,0,1,73.82,103.5v-21l-.39-.07.39-.11a36.88,36.88,0,0,0,26.54-35.39Z"/></svg>