<svg id="Layer_1" data-name="Layer 1" xmlns="http://www.w3.org/2000/svg" viewBox="0 0 334 78"><defs><style>.cls-1{fill:#fff;}</style></defs><title>textwhite</title><path class="cls-1" d="M27.35,45.22l-5.58,6V66.1H11V14H21.77v23.6l4.72-6.47L39.75,14H53L34.46,37.18l19,28.92H40.72Z"/><path class="cls-1" d="M73.72,66.82q-8.5,0-13.85-5.22T54.52,47.69v-1a23.43,23.43,0,0,1,2.25-10.43,16.45,16.45,0,0,1,6.39-7.07,17.87,17.87,0,0,1,9.42-2.49q7.94,0,12.49,5T89.63,45.9v4.22H65a9.59,9.59,0,0,0,3,6.08,9.16,9.16,0,0,0,6.38,2.29,11.16,11.16,0,0,0,9.33-4.33l5.08,5.68A15.43,15.43,0,0,1,82.52,65,20.64,20.64,0,0,1,73.72,66.82ZM72.54,35a6.5,6.5,0,0,0-5,2.08,10.86,10.86,0,0,0-2.45,6H79.48v-.83a7.69,7.69,0,0,0-1.86-5.33A6.66,6.66,0,0,0,72.54,35Z"/><path class="cls-1" d="M106.4,66.1H96V11.18H106.4Z"/><path class="cls-1" d="M137.32,66.1a11.49,11.49,0,0,1-1-3.47,12.52,12.52,0,0,1-9.76,4.19,13.75,13.75,0,0,1-9.42-3.29,10.6,10.6,0,0,1-3.74-8.3,10.94,10.94,0,0,1,4.56-9.44q4.56-3.28,13.17-3.32h4.76V40.25A6.35,6.35,0,0,0,134.48,36a5.42,5.42,0,0,0-4.34-1.61A6.2,6.2,0,0,0,126,35.6,4.29,4.29,0,0,0,124.56,39H114.23a10.43,10.43,0,0,1,2.07-6.23,13.7,13.7,0,0,1,5.87-4.48,21.23,21.23,0,0,1,8.5-1.63q7.16,0,11.36,3.59t4.2,10.1V57.16q0,5.51,1.53,8.33v.61Zm-8.54-7.19a9,9,0,0,0,4.22-1,6.71,6.71,0,0,0,2.86-2.74V48.51H132q-7.75,0-8.26,5.36l0,.61a4.14,4.14,0,0,0,1.36,3.18A5.27,5.27,0,0,0,128.78,58.91Z"/><path class="cls-1" d="M175.12,55.41a3.32,3.32,0,0,0-1.88-3,21.13,21.13,0,0,0-6-2q-13.8-2.9-13.8-11.73a10.64,10.64,0,0,1,4.28-8.6Q162,26.7,168.86,26.7q7.37,0,11.78,3.47a10.93,10.93,0,0,1,4.42,9H174.72a5,5,0,0,0-1.43-3.67,6.06,6.06,0,0,0-4.47-1.44,6.18,6.18,0,0,0-4,1.18,3.71,3.71,0,0,0-1.43,3A3.18,3.18,0,0,0,165,41a16.69,16.69,0,0,0,5.49,1.82A45.32,45.32,0,0,1,177,44.58q8.18,3,8.18,10.4a10.07,10.07,0,0,1-4.54,8.56q-4.55,3.29-11.72,3.28a20.41,20.41,0,0,1-8.64-1.74,14.5,14.5,0,0,1-5.92-4.75,11.06,11.06,0,0,1-2.14-6.53H162A5.42,5.42,0,0,0,164,58a8.09,8.09,0,0,0,5.08,1.47,7.51,7.51,0,0,0,4.49-1.13A3.51,3.51,0,0,0,175.12,55.41Z"/><path class="cls-1" d="M226.67,47.12q0,9.29-4,14.49a13.14,13.14,0,0,1-11.08,5.21A12.08,12.08,0,0,1,201.57,62l-.46,4.11h-9.3V11.18h10.34v19.7a11.77,11.77,0,0,1,9.4-4.18,13.24,13.24,0,0,1,11.1,5.2q4,5.2,4,14.64Zm-10.33-.75q0-5.86-1.86-8.57a6.29,6.29,0,0,0-5.54-2.7c-3.29,0-5.56,1.35-6.79,4V54.41Q204,58.49,209,58.49t6.58-4.94A25.45,25.45,0,0,0,216.34,46.37Z"/><path class="cls-1" d="M233,17.41a5.09,5.09,0,0,1,1.56-3.83,6.7,6.7,0,0,1,8.45,0,5.07,5.07,0,0,1,1.58,3.83A5.07,5.07,0,0,1,243,21.27a6.63,6.63,0,0,1-8.4,0A5,5,0,0,1,233,17.41Zm11,48.69H233.57V27.42h10.37Z"/><path class="cls-1" d="M273.4,55.41a3.31,3.31,0,0,0-1.88-3,21.15,21.15,0,0,0-6-2q-13.8-2.9-13.8-11.73a10.63,10.63,0,0,1,4.27-8.6q4.28-3.45,11.17-3.45,7.37,0,11.79,3.47a10.92,10.92,0,0,1,4.41,9H273a5,5,0,0,0-1.43-3.67,6.1,6.1,0,0,0-4.47-1.44,6.16,6.16,0,0,0-4,1.18,3.71,3.71,0,0,0-1.43,3A3.18,3.18,0,0,0,263.27,41a16.7,16.7,0,0,0,5.48,1.82,44.61,44.61,0,0,1,6.51,1.74q8.19,3,8.19,10.4a10.1,10.1,0,0,1-4.54,8.56q-4.55,3.29-11.73,3.28a20.37,20.37,0,0,1-8.63-1.74,14.43,14.43,0,0,1-5.92-4.75,11.07,11.07,0,0,1-2.15-6.53h9.8a5.39,5.39,0,0,0,2,4.22,8,8,0,0,0,5.07,1.47,7.49,7.49,0,0,0,4.49-1.13A3.51,3.51,0,0,0,273.4,55.41Z"/><path class="cls-1" d="M312.52,66.1a11.21,11.21,0,0,1-1-3.47,12.5,12.5,0,0,1-9.76,4.19,13.75,13.75,0,0,1-9.42-3.29,10.6,10.6,0,0,1-3.74-8.3,10.94,10.94,0,0,1,4.56-9.44q4.56-3.28,13.17-3.32h4.76V40.25A6.35,6.35,0,0,0,309.67,36a5.4,5.4,0,0,0-4.34-1.61,6.15,6.15,0,0,0-4.09,1.25A4.27,4.27,0,0,0,299.75,39H289.42a10.43,10.43,0,0,1,2.07-6.23,13.7,13.7,0,0,1,5.87-4.48,21.24,21.24,0,0,1,8.51-1.63q7.14,0,11.35,3.59t4.2,10.1V57.16q0,5.51,1.54,8.33v.61ZM304,58.91a9,9,0,0,0,4.22-1,6.71,6.71,0,0,0,2.86-2.74V48.51h-3.86q-7.76,0-8.26,5.36l0,.61a4.14,4.14,0,0,0,1.36,3.18A5.27,5.27,0,0,0,304,58.91Z"/></svg>