<svg id="Layer_1" data-name="Layer 1" xmlns="http://www.w3.org/2000/svg" viewBox="0 0 334 78"><defs><style>.cls-1{fill:#f7f7f7;}</style></defs><title>textwhite</title><path class="cls-1" d="M30.79,45.07l-5.44,5.86v14.5H14.88V14.66H25.35v23L30,31.36l12.94-16.7H55.75l-18,22.56L56.28,65.43H43.83Z"/><path class="cls-1" d="M76,66.13q-8.31,0-13.52-5.09T57.29,47.47v-1a22.75,22.75,0,0,1,2.2-10.17,16.06,16.06,0,0,1,6.22-6.9A17.45,17.45,0,0,1,74.9,27q7.74,0,12.19,4.89t4.44,13.84v4.12h-24a9.29,9.29,0,0,0,2.94,5.92A8.92,8.92,0,0,0,76.68,58a10.89,10.89,0,0,0,9.1-4.22l5,5.54a15.13,15.13,0,0,1-6.13,5A20.31,20.31,0,0,1,76,66.13Zm-1.15-31a6.32,6.32,0,0,0-4.87,2A10.57,10.57,0,0,0,67.61,43h14v-.81A7.52,7.52,0,0,0,79.82,37,6.5,6.5,0,0,0,74.87,35.13Z"/><path class="cls-1" d="M107.89,65.43H97.78V11.87h10.11Z"/><path class="cls-1" d="M138.06,65.43a11,11,0,0,1-1-3.38,12.19,12.19,0,0,1-9.52,4.08,13.41,13.41,0,0,1-9.19-3.21,10.31,10.31,0,0,1-3.64-8.09,10.63,10.63,0,0,1,4.45-9.2q4.44-3.21,12.85-3.25h4.64V40.22A6.18,6.18,0,0,0,135.28,36a5.25,5.25,0,0,0-4.23-1.57,6,6,0,0,0-4,1.22A4.15,4.15,0,0,0,125.61,39H115.53a10.1,10.1,0,0,1,2-6.06,13.37,13.37,0,0,1,5.72-4.38,20.79,20.79,0,0,1,8.3-1.59q7,0,11.07,3.51t4.1,9.85V56.72c0,3.58.52,6.28,1.5,8.12v.59Zm-8.34-7a8.73,8.73,0,0,0,4.12-1,6.56,6.56,0,0,0,2.79-2.67V48.28h-3.77q-7.58,0-8.06,5.23l0,.59a4,4,0,0,0,1.32,3.1A5.15,5.15,0,0,0,129.72,58.42Z"/><path class="cls-1" d="M174.92,55a3.24,3.24,0,0,0-1.84-2.92,21.07,21.07,0,0,0-5.87-1.9q-13.47-2.82-13.46-11.43a10.36,10.36,0,0,1,4.17-8.39c2.77-2.24,6.41-3.37,10.89-3.37q7.19,0,11.49,3.39a10.65,10.65,0,0,1,4.31,8.78H174.53a4.86,4.86,0,0,0-1.39-3.57,5.92,5.92,0,0,0-4.36-1.41,6,6,0,0,0-3.94,1.15,3.64,3.64,0,0,0-1.4,2.93A3.11,3.11,0,0,0,165,41a16.23,16.23,0,0,0,5.35,1.78,43.53,43.53,0,0,1,6.35,1.69q8,2.93,8,10.15a9.85,9.85,0,0,1-4.43,8.35q-4.44,3.19-11.44,3.19a19.91,19.91,0,0,1-8.42-1.69,14.12,14.12,0,0,1-5.78-4.64,10.78,10.78,0,0,1-2.09-6.36h9.56a5.22,5.22,0,0,0,2,4.11A7.83,7.83,0,0,0,169.06,59a7.2,7.2,0,0,0,4.37-1.1A3.41,3.41,0,0,0,174.92,55Z"/><path class="cls-1" d="M225.2,46.92q0,9.06-3.87,14.14a12.82,12.82,0,0,1-10.81,5.07,11.78,11.78,0,0,1-9.8-4.71l-.45,4H191.2V11.87h10.08V31.08A11.47,11.47,0,0,1,210.45,27a12.93,12.93,0,0,1,10.83,5.08q3.91,5.07,3.92,14.28Zm-10.08-.74q0-5.72-1.81-8.35a6.14,6.14,0,0,0-5.4-2.63q-4.82,0-6.63,3.94V54q1.84,4,6.7,4t6.41-4.82A24.75,24.75,0,0,0,215.12,46.18Z"/><path class="cls-1" d="M231.34,17.94a5,5,0,0,1,1.52-3.74,6.56,6.56,0,0,1,8.25,0,5,5,0,0,1,1.53,3.74,5,5,0,0,1-1.55,3.76,6.45,6.45,0,0,1-8.2,0A5,5,0,0,1,231.34,17.94Zm10.71,47.49H231.93V27.7h10.12Z"/><path class="cls-1" d="M270.78,55A3.25,3.25,0,0,0,269,52.09a21.16,21.16,0,0,0-5.88-1.9q-13.45-2.82-13.46-11.43a10.36,10.36,0,0,1,4.17-8.39Q258,27,264.68,27q7.19,0,11.49,3.39a10.65,10.65,0,0,1,4.31,8.78H270.4A4.87,4.87,0,0,0,269,35.6a5.91,5.91,0,0,0-4.36-1.41,6,6,0,0,0-3.94,1.15,3.63,3.63,0,0,0-1.39,2.93A3.11,3.11,0,0,0,260.9,41a16.14,16.14,0,0,0,5.35,1.78,43.88,43.88,0,0,1,6.35,1.69q8,2.93,8,10.15a9.85,9.85,0,0,1-4.43,8.35q-4.42,3.19-11.44,3.19a19.91,19.91,0,0,1-8.42-1.69,14.16,14.16,0,0,1-5.77-4.64,10.78,10.78,0,0,1-2.09-6.36H258a5.28,5.28,0,0,0,2,4.11A7.83,7.83,0,0,0,264.92,59a7.26,7.26,0,0,0,4.38-1.1A3.4,3.4,0,0,0,270.78,55Z"/><path class="cls-1" d="M308.93,65.43a11.26,11.26,0,0,1-1-3.38,12.19,12.19,0,0,1-9.52,4.08,13.39,13.39,0,0,1-9.19-3.21,10.31,10.31,0,0,1-3.64-8.09,10.64,10.64,0,0,1,4.44-9.2q4.46-3.21,12.86-3.25h4.63V40.22A6.17,6.17,0,0,0,306.16,36a5.27,5.27,0,0,0-4.24-1.57,6,6,0,0,0-4,1.22A4.15,4.15,0,0,0,296.48,39H286.4a10.11,10.11,0,0,1,2-6.06,13.37,13.37,0,0,1,5.72-4.38,20.79,20.79,0,0,1,8.3-1.59q7,0,11.07,3.51t4.1,9.85V56.72c0,3.58.52,6.28,1.5,8.12v.59Zm-8.33-7a8.67,8.67,0,0,0,4.11-1,6.45,6.45,0,0,0,2.79-2.67V48.28h-3.76q-7.58,0-8.06,5.23l0,.59A4,4,0,0,0,297,57.2,5.13,5.13,0,0,0,300.6,58.42Z"/></svg>